# xmcd CD database file
#
# Track frame offsets:
#	150
#	16103
#	29390
#	45436
#	59434
#	72438
#	92969
#	115291
#	135829
#	153196
#	164452
#	178690
#	190483
#	208457
#
# Disc length: 3047 seconds
#
# Revision: 3
# Processed by: cddbd v1.5.2PL0 Copyright (c) Steve Scherf et al.
# Submitted via: CDex 1.51
#
DISCID=c20be50e
DTITLE=John Mayall - Room To Move
DYEAR=1998
DGENRE=Blues
TTITLE0=Oh Pretty Woman
TTITLE1=Sitting In The Rain
TTITLE2=Long Gone Midnight
TTITLE3=Mo Reply
TTITLE4=Hartley Quits
TTITLE5=Jenny
TTITLE6=Room To Move
TTITLE7=They Call It Stormy Monday
TTITLE8=Don't Pick A Flower
TTITLE9=Thinking Of My Woman
TTITLE10=Don't Waste My Time
TTITLE11=Plan Your Revolution
TTITLE12=Took The Car
TTITLE13=Time's Moving On
EXTD=YEAR: 1998
EXTT0=
EXTT1=
EXTT2=
EXTT3=
EXTT4=
EXTT5=
EXTT6=
EXTT7=
EXTT8=
EXTT9=
EXTT10=
EXTT11=
EXTT12=
EXTT13=
PLAYORDER=
